<?xml version="1.0"?>
<svg xmlns="http://www.w3.org/2000/svg" xmlns:xlink="http://www.w3.org/1999/xlink" xmlns:svgjs="http://svgjs.com/svgjs" version="1.1" width="512" height="512" x="0" y="0" viewBox="0 0 512 512" style="enable-background:new 0 0 512 512" xml:space="preserve" class=""><g transform="matrix(0.9999999999999999,0,0,1,5.684341886080802e-14,1.1368683772161603e-13)"><g xmlns="http://www.w3.org/2000/svg"><path d="m373.605 406.568c4 4 3.805 10.511-.376 14.321-.765.697-1.534 1.389-2.309 2.075-40.155 35.592-93.241 56.921-151.32 56.047-121.576-1.83-219.743-101.688-219.6-223.279.145-123.057 99.946-222.769 223.037-222.769 119.731 0 217.426 94.343 222.804 212.746.255 5.61-4.248 10.291-9.864 10.291-59.325 0-150.094 0-191.278 0-7.996 0-11.994 9.668-6.34 15.322z" fill="#d77f4a" data-original="#d77f4a" style="" class=""/><path d="m223.037 32.963c-4.902 0-9.763.176-14.587.487 112.971 7.31 203.031 98.713 208.188 212.259.255 5.61-4.248 10.291-9.864 10.291h29.202c5.616 0 10.119-4.681 9.864-10.291-5.376-118.403-103.072-212.746-222.803-212.746z" fill="#c86d36" data-original="#c86d36" style="" class=""/><path d="m244.699 256h163.459c0-102.239-82.881-185.121-185.121-185.121-102.239 0-185.121 82.881-185.121 185.121 0 102.239 82.881 185.121 185.121 185.121 47.09 0 90.073-17.582 122.743-46.54 2.736-2.425 5.398-4.933 7.986-7.514l.171.171c.056-.056.111-.114.167-.171l-115.745-115.745c-5.654-5.654-1.656-15.322 6.34-15.322z" fill="#fec165" data-original="#fec165" style="" class=""/><circle cx="253.532" cy="121.433" fill="#e94444" r="24.661" data-original="#e94444" style="" class=""/><path d="m502.125 281.849c-59.325 0-150.094 0-191.278 0-7.996 0-11.994 9.668-6.34 15.322l135.245 135.245c3.964 3.964 10.458 3.861 14.236-.281 34.018-37.283 55.555-86.151 58-139.995.257-5.61-4.246-10.291-9.863-10.291z" fill="#d77f4a" data-original="#d77f4a" style="" class=""/><path d="m310.849 281.849c-7.996 0-11.996 9.668-6.342 15.322l115.373 115.371c.012-.011.024-.022.035-.034l.171.171c33.485-33.485 54.201-79.739 54.22-130.831-57.016.001-128.301.001-163.457.001z" fill="#fec165" data-original="#fec165" style="" class=""/><circle cx="411.229" cy="328.166" fill="#e94444" r="23.147" data-original="#e94444" style="" class=""/><circle cx="272.262" cy="219.642" fill="#9e5528" r="13.907" data-original="#9e5528" style=""/><circle cx="212.858" cy="186.225" fill="#ee6161" r="13.392" data-original="#ee6161" style=""/><g fill="#e94444"><circle cx="127.871" cy="178.213" r="24.233" fill="#e94444" data-original="#e94444" style="" class=""/><circle cx="155.809" cy="256" r="24.233" fill="#e94444" data-original="#e94444" style="" class=""/><circle cx="122.123" cy="335.262" r="24.233" fill="#e94444" data-original="#e94444" style="" class=""/><circle cx="259.697" cy="377.319" r="24.233" fill="#e94444" data-original="#e94444" style="" class=""/></g><circle cx="214.354" cy="311.029" fill="#ee6161" r="13.392" data-original="#ee6161" style=""/><circle cx="79.666" cy="256" fill="#9e5528" r="13.392" data-original="#9e5528" style=""/><circle cx="177.316" cy="377.319" fill="#9e5528" r="13.392" data-original="#9e5528" style=""/><circle cx="168.374" cy="122.267" fill="#9e5528" r="13.392" data-original="#9e5528" style=""/><g fill="#fdb441"><path d="m339.015 371.981-14.452 15.085c-2.588 2.581-5.249 5.089-7.986 7.514-29.27 25.944-66.821 42.746-108.184 45.965 4.832.378 9.714.575 14.643.575 51.768 0 98.99-21.683 130.896-54.225z" fill="#fdb441" data-original="#fdb441" style="" class=""/><path d="m223.037 70.879c-4.914 0-9.783.196-14.601.572 95.414 7.445 170.52 87.224 170.52 184.549h29.202c0-102.239-82.881-185.121-185.121-185.121z" fill="#fdb441" data-original="#fdb441" style="" class=""/></g><path d="m502.125 281.849c-4.607 0-9.405 0-14.353 0 .608 1.354.928 2.862.856 4.451-2.411 53.087-23.39 101.329-56.583 138.408l7.708 7.708c3.964 3.964 10.457 3.861 14.236-.281 34.018-37.283 55.555-86.151 58-139.995.255-5.611-4.248-10.291-9.864-10.291z" fill="#c86d36" data-original="#c86d36" style="" class=""/><path d="m450.841 281.849c-1.392 44.362-18.387 84.786-45.687 115.969l14.725 14.725c.012-.011.024-.022.035-.034l.171.171c33.485-33.485 54.201-79.739 54.22-130.831-7.606 0-15.47 0-23.464 0z" fill="#fdb441" data-original="#fdb441" style="" class=""/><path d="m339.015 371.981-14.452 15.085c-2.588 2.581-5.249 5.089-7.986 7.514-29.27 25.944-66.821 42.746-108.184 45.965 4.832.378 9.714.575 14.643.575 51.768 0 98.99-21.683 130.896-54.225z" fill="#fdb441" data-original="#fdb441" style="" class=""/><path d="m223.037 70.879c-4.914 0-9.783.196-14.601.572 95.414 7.445 170.52 87.224 170.52 184.549h29.202c0-102.239-82.881-185.121-185.121-185.121z" fill="#fdb441" data-original="#fdb441" style="" class=""/><path d="m353.766 387.066c-.056.055-.113.109-.169.164" fill="#c86d36" data-original="#c86d36" style="" class=""/><path d="m373.605 406.568c4 4 3.805 10.511-.376 14.321-.765.697-1.534 1.389-2.309 2.075-40.155 35.592-93.241 56.921-151.32 56.047-3.775-.057-7.527-.209-11.255-.453 51.031-3.278 97.395-23.704 133.373-55.594.774-.686 1.544-1.378 2.309-2.075l20.83-23.069z" fill="#c86d36" data-original="#c86d36" style="" class=""/><circle cx="340.191" cy="186.225" fill="#e94444" r="24.233" data-original="#e94444" style="" class=""/></g></g></svg>
